<svg id="Ebene_1" data-name="Ebene 1" xmlns="http://www.w3.org/2000/svg" viewBox="0 0 513.07 104.71" width="151.8973355" height="31">
<defs><style>.cls-1{fill:#e42313;}</style></defs>
<title>wieland_Logo_RGB_228_35_19</title>
<polygon class="cls-1" points="89.13 29.99 74.51 70.97 59.08 29.99 48.16 29.99 32.45 71.44 17.84 29.99 0 29.99 26.17 102.83 37.59 102.83 53.54 61.33 69.03 102.83 80.58 102.83 107.09 29.99 89.13 29.99"/><path class="cls-1" d="M190,188.4h18.22V115.55H190ZM190.93,89a11.25,11.25,0,0,0-3.39,8.23,11.8,11.8,0,0,0,3.42,8.54,11.17,11.17,0,0,0,8.29,3.51,11,11,0,0,0,8.12-3.45,11.39,11.39,0,0,0,3.4-8.33A11.59,11.59,0,0,0,207.34,89,11.48,11.48,0,0,0,190.93,89" transform="translate(-74.61 -85.56)"/><path class="cls-1" d="M239.81,142.87q3.08-6.76,6.69-9.44a21.81,21.81,0,0,1,13.38-4.28A20.6,20.6,0,0,1,272.21,133a18.38,18.38,0,0,1,7.13,9.91Zm57.82,10.91q0-18.08-10.75-29.09t-27.91-11q-16.16,0-26.87,11t-10.71,27.69q0,16.26,10.74,27.08T260,190.27q11,0,19-3.92a36.25,36.25,0,0,0,13.76-12.08L277.4,167a24.25,24.25,0,0,1-17.56,7.16q-8.55,0-14-4.58A19.61,19.61,0,0,1,239,157.26h58.55Z" transform="translate(-74.61 -85.56)"/><rect class="cls-1" x="235.91" y="1.88" width="18.23" height="100.96"/><path class="cls-1" d="M393.69,136.44q5.65,5.9,5.66,15.4,0,9.71-5.66,15.7a18.74,18.74,0,0,1-14.24,6,18.42,18.42,0,0,1-14-6.09q-5.69-6.09-5.69-15.53t5.59-15.37a18.42,18.42,0,0,1,14-6,19,19,0,0,1,14.31,5.89m4.85-12.85a33.46,33.46,0,0,0-10.6-7.43,30.61,30.61,0,0,0-12.27-2.48q-14.21,0-24.14,10.78t-9.94,27.65q0,16.26,10.27,27.21t24.34,11A30,30,0,0,0,387.84,188a35.74,35.74,0,0,0,10.7-7.33v7.7h18.23V115.56H398.54Z" transform="translate(-74.61 -85.56)"/><path class="cls-1" d="M435.2,188.4h18.22V159.17q0-11.37.8-14.78a19.84,19.84,0,0,1,5.5-10.26,13.4,13.4,0,0,1,9.49-3.71,11.32,11.32,0,0,1,7.16,2.24,11.89,11.89,0,0,1,4.06,6.52q1.17,4.27,1.17,17.32v31.9h18V140.26q0-12.58-6.33-19A24.87,24.87,0,0,0,475,113.68a27,27,0,0,0-10.3,2A44,44,0,0,0,453.42,123v-7.47H435.2Z" transform="translate(-74.61 -85.56)"/><path class="cls-1" d="M564.6,136.44q5.65,5.9,5.65,15.4,0,9.71-5.65,15.7a18.75,18.75,0,0,1-14.24,6,18.41,18.41,0,0,1-14-6.09q-5.69-6.09-5.69-15.53t5.59-15.37a18.42,18.42,0,0,1,14-6,19,19,0,0,1,14.31,5.89m4.85-12.85a33.57,33.57,0,0,0-10.6-7.43,30.68,30.68,0,0,0-12.27-2.48,31.6,31.6,0,0,0-24.14,10.78q-9.95,10.79-9.94,27.65,0,16.26,10.27,27.21t24.34,11A30,30,0,0,0,558.75,188a35.87,35.87,0,0,0,10.7-7.33v7.7h18.23v-101H569.45Z" transform="translate(-74.61 -85.56)"/></svg>